<svg width="27" height="15" viewBox="0 0 27 15" fill="none" xmlns="http://www.w3.org/2000/svg">
<path d="M0.651224 2.14286H25.9133C26.266 2.14286 26.5645 1.65179 26.5645 1.07143C26.5645 0.491071 26.266 0 25.9133 0H0.651224C0.298478 0 0 0.491071 0 1.07143C0 1.65179 0.298478 2.14286 0.651224 2.14286Z" fill="black"/>
<path d="M25.9116 6.42856H0.651182C0.298458 6.42856 0 6.91963 0 7.49999C0 8.08035 0.298458 8.57142 0.651182 8.57142H25.9116C26.2643 8.57142 26.5628 8.08035 26.5628 7.49999C26.5899 6.91963 26.2915 6.42856 25.9116 6.42856Z" fill="black"/>
<path d="M25.9133 12.8571H0.651224C0.298478 12.8571 0 13.3482 0 13.9286C0 14.5089 0.298478 15 0.651224 15H25.9133C26.266 15 26.5645 14.5089 26.5645 13.9286C26.5645 13.3482 26.2932 12.8571 25.9133 12.8571Z" fill="black"/>
</svg>
